<svg xmlns="http://www.w3.org/2000/svg" xmlns:xlink="http://www.w3.org/1999/xlink" width="500" zoomAndPan="magnify" viewBox="0 0 375 374.999991" height="500" preserveAspectRatio="xMidYMid meet" version="1.0"><defs><clipPath id="29b932edfc"><path d="M 35.09375 35.371094 L 339.59375 35.371094 L 339.59375 339.871094 L 35.09375 339.871094 Z M 35.09375 35.371094 " clip-rule="nonzero"/></clipPath></defs><g clip-path="url(#29b932edfc)"><path fill="#000000" d="M 337.558594 331.171875 C 339.535156 333.152344 339.535156 336.363281 337.558594 338.34375 C 336.570312 339.332031 335.273438 339.828125 333.980469 339.828125 C 332.683594 339.828125 331.386719 339.332031 330.398438 338.34375 L 187.324219 195.007812 L 44.246094 338.34375 C 43.257812 339.332031 41.960938 339.828125 40.664062 339.828125 C 39.371094 339.828125 38.074219 339.332031 37.085938 338.34375 C 35.109375 336.363281 35.109375 333.152344 37.085938 331.171875 L 180.164062 187.835938 L 37.085938 44.5 C 35.109375 42.519531 35.109375 39.308594 37.085938 37.328125 C 39.0625 35.347656 42.269531 35.347656 44.246094 37.328125 L 187.324219 180.664062 L 330.398438 37.328125 C 332.378906 35.347656 335.582031 35.347656 337.558594 37.328125 C 339.535156 39.308594 339.535156 42.519531 337.558594 44.5 L 194.480469 187.835938 Z M 337.558594 331.171875 " fill-opacity="1" fill-rule="nonzero"/></g></svg>