<svg xmlns="http://www.w3.org/2000/svg" xmlns:xlink="http://www.w3.org/1999/xlink" width="500" zoomAndPan="magnify" viewBox="0 0 375 374.999991" height="500" preserveAspectRatio="xMidYMid meet" version="1.0"><defs><clipPath id="c17d295568"><path d="M 142 270 L 198 270 L 198 325.546875 L 142 325.546875 Z M 142 270 " clip-rule="nonzero"/></clipPath><clipPath id="7008df5418"><path d="M 256.285156 270 L 312 270 L 312 325.546875 L 256.285156 325.546875 Z M 256.285156 270 " clip-rule="nonzero"/></clipPath><clipPath id="65fd2aeac7"><path d="M 19.359375 49.546875 L 355.554688 49.546875 L 355.554688 263.546875 L 19.359375 263.546875 Z M 19.359375 49.546875 " clip-rule="nonzero"/></clipPath></defs><g clip-path="url(#c17d295568)"><path fill="#ffffff" d="M 169.257812 280.742188 C 178.753906 280.503906 186.664062 288.027344 186.902344 297.519531 C 186.902344 297.699219 186.902344 297.878906 186.902344 298.027344 C 187.023438 307.550781 179.378906 315.34375 169.886719 315.433594 C 160.363281 315.554688 152.570312 307.941406 152.449219 298.417969 C 152.449219 298.296875 152.449219 298.148438 152.449219 298.027344 C 152.421875 288.652344 159.882812 280.953125 169.257812 280.742188 Z M 168.902344 270.652344 C 154.0625 271.070312 142.300781 283.21875 142.300781 298.027344 C 142.152344 313.164062 154.300781 325.554688 169.4375 325.675781 C 184.542969 325.824219 196.933594 313.671875 197.082031 298.535156 C 197.082031 298.386719 197.082031 298.207031 197.082031 298.027344 C 197.082031 282.890625 184.8125 270.652344 169.675781 270.621094 C 169.4375 270.621094 169.140625 270.621094 168.902344 270.652344 " fill-opacity="1" fill-rule="nonzero"/></g><g clip-path="url(#7008df5418)"><path fill="#ffffff" d="M 283.78125 280.742188 C 293.277344 280.503906 301.1875 288.027344 301.425781 297.519531 C 301.425781 297.699219 301.425781 297.878906 301.425781 298.027344 C 301.546875 307.550781 293.902344 315.34375 284.378906 315.433594 C 274.886719 315.554688 267.0625 307.941406 266.972656 298.417969 C 266.972656 298.296875 266.972656 298.148438 266.972656 298.027344 C 266.914062 288.652344 274.40625 280.953125 283.78125 280.742188 Z M 283.574219 270.472656 C 268.617188 270.832031 256.703125 283.101562 256.824219 298.027344 C 256.703125 313.164062 268.882812 325.523438 283.992188 325.613281 C 299.128906 325.734375 311.488281 313.554688 311.578125 298.417969 C 311.605469 298.296875 311.605469 298.148438 311.578125 298.027344 C 311.695312 282.890625 299.484375 270.5625 284.378906 270.472656 C 284.109375 270.472656 283.839844 270.472656 283.574219 270.472656 " fill-opacity="1" fill-rule="nonzero"/></g><g clip-path="url(#65fd2aeac7)"><path fill="#ffffff" d="M 106.054688 106.75 L 344.476562 106.75 L 317.070312 216.316406 L 132.984375 216.316406 Z M 24.402344 49.515625 C 21.597656 49.546875 19.328125 51.84375 19.359375 54.652344 C 19.386719 57.429688 21.625 59.667969 24.402344 59.699219 L 62.738281 59.699219 C 75.214844 59.699219 86.082031 68.207031 89.070312 80.328125 L 127.699219 237.363281 C 131.433594 252.5 145.015625 263.15625 160.601562 263.15625 L 326.890625 263.15625 C 329.699219 263.097656 331.9375 260.800781 331.90625 257.992188 C 331.847656 255.246094 329.640625 253.039062 326.890625 252.976562 L 160.601562 252.976562 C 149.675781 252.976562 140.179688 245.542969 137.582031 234.945312 L 135.492188 226.496094 L 325.011719 226.496094 L 355.402344 105.015625 C 356.300781 101.375 354.089844 97.703125 350.476562 96.808594 C 349.941406 96.65625 349.371094 96.597656 348.835938 96.597656 L 103.546875 96.597656 L 98.949219 77.878906 C 94.832031 61.25 79.902344 49.515625 62.738281 49.515625 L 24.402344 49.515625 " fill-opacity="1" fill-rule="nonzero"/></g></svg>