<svg xmlns="http://www.w3.org/2000/svg" xmlns:xlink="http://www.w3.org/1999/xlink" width="500" zoomAndPan="magnify" viewBox="0 0 375 374.999991" height="500" preserveAspectRatio="xMidYMid meet" version="1.0"><defs><clipPath id="9b391866c5"><path d="M 20.390625 20.390625 L 354.890625 20.390625 L 354.890625 354 L 20.390625 354 Z M 20.390625 20.390625 " clip-rule="nonzero"/></clipPath><clipPath id="668523f84a"><path d="M 112 82 L 266 82 L 266 354.890625 L 112 354.890625 Z M 112 82 " clip-rule="nonzero"/></clipPath></defs><rect x="-37.5" width="450" fill="#ffffff" y="-37.499999" height="449.999989" fill-opacity="1"/><rect x="-37.5" width="450" fill="#ffffff" y="-37.499999" height="449.999989" fill-opacity="1"/><g clip-path="url(#9b391866c5)"><path fill="#000000" d="M 354.644531 187.523438 C 354.644531 95.210938 279.820312 20.390625 187.523438 20.390625 C 95.226562 20.390625 20.390625 95.210938 20.390625 187.523438 C 20.390625 265.902344 74.347656 331.675781 147.144531 349.738281 L 147.144531 238.601562 L 112.671875 238.601562 L 112.671875 187.523438 L 147.144531 187.523438 L 147.144531 165.519531 C 147.144531 108.636719 172.882812 82.265625 228.730469 82.265625 C 239.320312 82.265625 257.589844 84.335938 265.0625 86.421875 L 265.0625 132.714844 C 261.117188 132.292969 254.261719 132.082031 245.757812 132.082031 C 218.351562 132.082031 207.761719 142.464844 207.761719 169.449219 L 207.761719 187.507812 L 262.347656 187.507812 L 252.972656 238.585938 L 207.761719 238.585938 L 207.761719 353.414062 C 290.515625 343.421875 354.644531 272.953125 354.644531 187.507812 Z M 354.644531 187.523438 " fill-opacity="1" fill-rule="nonzero"/></g><g clip-path="url(#668523f84a)"><path fill="#ffffff" d="M 252.984375 238.585938 L 262.359375 187.507812 L 207.773438 187.507812 L 207.773438 169.449219 C 207.773438 142.464844 218.367188 132.082031 245.769531 132.082031 C 254.277344 132.082031 261.132812 132.292969 265.078125 132.714844 L 265.078125 86.421875 C 257.605469 84.351562 239.335938 82.265625 228.746094 82.265625 C 172.898438 82.265625 147.160156 108.636719 147.160156 165.519531 L 147.160156 187.523438 L 112.6875 187.523438 L 112.6875 238.601562 L 147.160156 238.601562 L 147.160156 349.738281 C 160.089844 352.949219 173.605469 354.65625 187.539062 354.65625 C 194.394531 354.65625 201.144531 354.238281 207.789062 353.429688 L 207.789062 238.601562 L 253 238.601562 Z M 252.984375 238.585938 " fill-opacity="1" fill-rule="nonzero"/></g></svg>