<svg xmlns="http://www.w3.org/2000/svg" xmlns:xlink="http://www.w3.org/1999/xlink" width="500" zoomAndPan="magnify" viewBox="0 0 375 374.999991" height="500" preserveAspectRatio="xMidYMid meet" version="1.0"><defs><clipPath id="b86446d848"><path d="M 23.671875 23.671875 L 351.421875 23.671875 L 351.421875 351.421875 L 23.671875 351.421875 Z M 23.671875 23.671875 " clip-rule="nonzero"/></clipPath></defs><g clip-path="url(#b86446d848)"><path fill="#000000" d="M 119.636719 24.800781 C 102.207031 25.617188 90.304688 28.414062 79.898438 32.488281 C 69.125 36.6875 60 42.308594 50.921875 51.429688 C 41.828125 60.554688 36.238281 69.695312 32.085938 80.484375 C 28.058594 90.921875 25.324219 102.824219 24.554688 120.269531 C 23.78125 137.730469 23.613281 143.304688 23.6875 187.796875 C 23.765625 232.273438 23.964844 237.859375 24.800781 255.335938 C 25.632812 272.765625 28.414062 284.652344 32.488281 295.074219 C 36.6875 305.851562 42.308594 314.957031 51.429688 324.050781 C 60.554688 333.144531 69.695312 338.71875 80.484375 342.886719 C 90.90625 346.914062 102.824219 349.664062 120.253906 350.417969 C 137.730469 351.191406 143.304688 351.363281 187.78125 351.269531 C 232.273438 351.191406 237.84375 350.992188 255.320312 350.15625 C 272.75 349.324219 284.636719 346.53125 295.058594 342.46875 C 305.835938 338.253906 314.957031 332.652344 324.035156 323.527344 C 333.113281 314.402344 338.703125 305.261719 342.871094 294.472656 C 346.898438 284.050781 349.648438 272.132812 350.40625 254.71875 C 351.160156 237.242188 351.347656 231.65625 351.269531 187.179688 C 351.191406 142.699219 350.976562 137.128906 350.15625 119.652344 C 349.324219 102.207031 346.546875 90.320312 342.46875 79.898438 C 338.253906 69.125 332.652344 60.015625 323.527344 50.921875 C 314.402344 41.84375 305.261719 36.238281 294.472656 32.085938 C 284.050781 28.058594 272.132812 25.308594 254.703125 24.554688 C 237.226562 23.78125 231.640625 23.613281 187.164062 23.6875 C 142.683594 23.765625 137.113281 23.964844 119.636719 24.800781 M 121.550781 320.917969 C 105.585938 320.222656 96.910156 317.566406 91.121094 315.34375 C 83.464844 312.378906 78.015625 308.828125 72.257812 303.132812 C 66.515625 297.40625 62.964844 291.957031 59.96875 284.328125 C 57.730469 278.554688 55.027344 269.894531 54.273438 253.917969 C 53.453125 236.65625 53.269531 231.46875 53.191406 187.734375 C 53.113281 144.011719 53.269531 138.824219 54.023438 121.550781 C 54.703125 105.585938 57.375 96.910156 59.597656 91.136719 C 62.5625 83.480469 66.097656 78.03125 71.808594 72.273438 C 77.535156 66.53125 82.988281 62.980469 90.628906 59.984375 C 96.402344 57.730469 105.0625 55.042969 121.027344 54.285156 C 138.300781 53.46875 143.472656 53.300781 187.207031 53.207031 C 230.945312 53.113281 236.132812 53.269531 253.40625 54.039062 C 269.371094 54.734375 278.046875 57.375 283.820312 59.613281 C 291.476562 62.578125 296.941406 66.097656 302.683594 71.824219 C 308.429688 77.550781 311.996094 82.988281 314.972656 90.644531 C 317.226562 96.402344 319.914062 105.078125 320.671875 121.027344 C 321.488281 138.300781 321.675781 143.488281 321.75 187.207031 C 321.828125 230.945312 321.675781 236.132812 320.917969 253.390625 C 320.222656 269.355469 317.566406 278.046875 315.34375 283.820312 C 312.378906 291.460938 308.84375 296.925781 303.117188 302.671875 C 297.390625 308.398438 291.957031 311.964844 284.296875 314.957031 C 278.539062 317.210938 269.863281 319.898438 253.917969 320.65625 C 236.640625 321.472656 231.46875 321.660156 187.71875 321.734375 C 143.996094 321.8125 138.808594 321.660156 121.535156 320.902344 M 255.089844 99.921875 C 255.105469 110.773438 263.9375 119.558594 274.773438 119.527344 C 285.625 119.511719 294.410156 110.699219 294.394531 99.84375 C 294.378906 88.992188 285.550781 80.207031 274.695312 80.222656 C 263.84375 80.238281 255.058594 89.070312 255.074219 99.90625 M 103.363281 187.640625 C 103.457031 234.09375 141.1875 271.671875 187.625 271.578125 C 234.078125 271.484375 271.671875 233.769531 271.578125 187.316406 C 271.484375 140.878906 233.753906 103.289062 187.300781 103.363281 C 140.863281 103.457031 103.273438 141.1875 103.363281 187.640625 M 132.867188 187.578125 C 132.820312 157.429688 157.210938 132.929688 187.363281 132.882812 C 217.511719 132.820312 242.015625 157.210938 242.074219 187.378906 C 242.136719 217.527344 217.730469 242.027344 187.578125 242.074219 C 157.429688 242.136719 132.929688 217.730469 132.882812 187.578125 " fill-opacity="1" fill-rule="nonzero"/></g></svg>