<svg xmlns="http://www.w3.org/2000/svg" xmlns:xlink="http://www.w3.org/1999/xlink" width="500" zoomAndPan="magnify" viewBox="0 0 375 374.999991" height="500" preserveAspectRatio="xMidYMid meet" version="1.0"><defs><clipPath id="db93ba69ff"><path d="M 23.671875 23.671875 L 351.421875 23.671875 L 351.421875 351.421875 L 23.671875 351.421875 Z M 23.671875 23.671875 " clip-rule="nonzero"/></clipPath></defs><g clip-path="url(#db93ba69ff)"><path fill="#ffffff" d="M 119.605469 24.800781 C 102.179688 25.617188 90.28125 28.410156 79.878906 32.484375 C 69.109375 36.683594 59.988281 42.300781 50.914062 51.421875 C 41.824219 60.542969 36.234375 69.679688 32.085938 80.46875 C 28.054688 90.898438 25.324219 102.800781 24.554688 120.238281 C 23.78125 137.691406 23.613281 143.265625 23.6875 187.742188 C 23.765625 232.207031 23.964844 237.792969 24.800781 255.261719 C 25.632812 272.6875 28.410156 284.570312 32.484375 294.988281 C 36.683594 305.757812 42.300781 314.863281 51.421875 323.953125 C 60.542969 333.046875 69.679688 338.617188 80.46875 342.785156 C 90.882812 346.8125 102.800781 349.558594 120.222656 350.316406 C 137.691406 351.085938 143.265625 351.257812 187.726562 351.164062 C 232.207031 351.085938 237.777344 350.886719 255.246094 350.050781 C 272.671875 349.21875 284.554688 346.425781 294.972656 342.367188 C 305.742188 338.152344 314.863281 332.550781 323.941406 323.429688 C 333.015625 314.308594 338.601562 305.171875 342.769531 294.386719 C 346.796875 283.96875 349.542969 272.054688 350.300781 254.644531 C 351.054688 237.175781 351.242188 231.589844 351.164062 187.125 C 351.085938 142.664062 350.871094 137.089844 350.050781 119.621094 C 349.21875 102.179688 346.441406 90.296875 342.367188 79.878906 C 338.152344 69.109375 332.550781 60.003906 323.429688 50.914062 C 314.308594 41.839844 305.171875 36.234375 294.386719 32.085938 C 283.96875 28.054688 272.054688 25.308594 254.628906 24.554688 C 237.160156 23.78125 231.574219 23.613281 187.109375 23.6875 C 142.648438 23.765625 137.074219 23.964844 119.605469 24.800781 M 121.519531 320.820312 C 105.5625 320.128906 96.886719 317.472656 91.101562 315.25 C 83.445312 312.289062 77.996094 308.738281 72.242188 303.042969 C 66.5 297.316406 62.949219 291.871094 59.957031 284.246094 C 57.71875 278.472656 55.019531 269.816406 54.261719 253.84375 C 53.445312 236.589844 53.257812 231.402344 53.179688 187.679688 C 53.105469 143.972656 53.257812 138.789062 54.015625 121.519531 C 54.695312 105.5625 57.363281 96.886719 59.585938 91.117188 C 62.550781 83.460938 66.082031 78.011719 71.792969 72.257812 C 77.519531 66.515625 82.96875 62.964844 90.605469 59.972656 C 96.378906 57.71875 105.035156 55.035156 120.996094 54.277344 C 138.265625 53.460938 143.433594 53.289062 187.15625 53.195312 C 230.878906 53.105469 236.0625 53.257812 253.332031 54.03125 C 269.292969 54.726562 277.964844 57.363281 283.738281 59.601562 C 291.390625 62.566406 296.855469 66.082031 302.59375 71.808594 C 308.335938 77.535156 311.902344 82.96875 314.878906 90.621094 C 317.132812 96.378906 319.820312 105.050781 320.574219 120.996094 C 321.394531 138.265625 321.578125 143.449219 321.65625 187.15625 C 321.734375 230.878906 321.578125 236.0625 320.820312 253.316406 C 320.128906 269.277344 317.472656 277.964844 315.25 283.738281 C 312.289062 291.375 308.753906 296.839844 303.027344 302.582031 C 297.300781 308.304688 291.871094 311.871094 284.214844 314.863281 C 278.457031 317.117188 269.785156 319.804688 253.84375 320.558594 C 236.574219 321.378906 231.402344 321.5625 187.664062 321.640625 C 143.957031 321.71875 138.773438 321.5625 121.503906 320.808594 M 255.015625 99.898438 C 255.03125 110.746094 263.859375 119.527344 274.691406 119.496094 C 285.542969 119.480469 294.324219 110.667969 294.308594 99.820312 C 294.292969 88.972656 285.464844 80.1875 274.617188 80.203125 C 263.765625 80.21875 254.984375 89.046875 255 99.882812 M 103.339844 187.589844 C 103.429688 234.027344 141.148438 271.589844 187.574219 271.496094 C 234.011719 271.40625 271.589844 233.703125 271.496094 187.265625 C 271.40625 140.839844 233.6875 103.261719 187.25 103.339844 C 140.824219 103.429688 103.246094 141.148438 103.339844 187.589844 M 132.832031 187.527344 C 132.785156 157.386719 157.167969 132.894531 187.308594 132.847656 C 217.453125 132.785156 241.945312 157.167969 242.003906 187.324219 C 242.066406 217.464844 217.667969 241.960938 187.527344 242.003906 C 157.386719 242.066406 132.894531 217.667969 132.847656 187.527344 " fill-opacity="1" fill-rule="nonzero"/></g></svg>