<svg xmlns="http://www.w3.org/2000/svg" xmlns:xlink="http://www.w3.org/1999/xlink" width="500" zoomAndPan="magnify" viewBox="0 0 375 374.999991" height="500" preserveAspectRatio="xMidYMid meet" version="1.0"><defs><clipPath id="38c6a3ab68"><path d="M 12 85.960938 L 362.882812 85.960938 L 362.882812 289 L 12 289 Z M 12 85.960938 " clip-rule="nonzero"/></clipPath></defs><g clip-path="url(#38c6a3ab68)"><path fill="#ffffff" d="M 353.648438 288.539062 L 21.34375 288.539062 C 20.738281 288.539062 20.136719 288.480469 19.542969 288.359375 C 18.949219 288.242188 18.371094 288.066406 17.8125 287.835938 C 17.25 287.601562 16.71875 287.320312 16.214844 286.980469 C 15.710938 286.644531 15.246094 286.261719 14.816406 285.835938 C 14.386719 285.40625 14.003906 284.9375 13.667969 284.433594 C 13.332031 283.929688 13.046875 283.398438 12.816406 282.839844 C 12.582031 282.28125 12.410156 281.703125 12.289062 281.109375 C 12.171875 280.511719 12.113281 279.914062 12.113281 279.308594 C 12.113281 278.699219 12.171875 278.101562 12.289062 277.507812 C 12.410156 276.910156 12.582031 276.335938 12.816406 275.773438 C 13.046875 275.214844 13.332031 274.683594 13.667969 274.179688 C 14.003906 273.675781 14.386719 273.207031 14.816406 272.78125 C 15.246094 272.351562 15.710938 271.96875 16.214844 271.632812 C 16.71875 271.296875 17.25 271.011719 17.8125 270.777344 C 18.371094 270.546875 18.949219 270.371094 19.542969 270.253906 C 20.136719 270.136719 20.738281 270.078125 21.34375 270.078125 L 353.648438 270.078125 C 354.253906 270.078125 354.855469 270.136719 355.449219 270.253906 C 356.042969 270.371094 356.621094 270.546875 357.179688 270.777344 C 357.738281 271.011719 358.269531 271.296875 358.773438 271.632812 C 359.28125 271.96875 359.746094 272.351562 360.175781 272.78125 C 360.601562 273.207031 360.984375 273.675781 361.320312 274.179688 C 361.660156 274.683594 361.941406 275.214844 362.175781 275.773438 C 362.40625 276.335938 362.582031 276.910156 362.699219 277.507812 C 362.820312 278.101562 362.878906 278.699219 362.878906 279.308594 C 362.878906 279.914062 362.820312 280.511719 362.699219 281.109375 C 362.582031 281.703125 362.40625 282.28125 362.175781 282.839844 C 361.941406 283.398438 361.660156 283.929688 361.320312 284.433594 C 360.984375 284.9375 360.601562 285.40625 360.175781 285.835938 C 359.746094 286.261719 359.28125 286.644531 358.773438 286.980469 C 358.269531 287.320312 357.738281 287.601562 357.179688 287.835938 C 356.621094 288.066406 356.042969 288.242188 355.449219 288.359375 C 354.855469 288.480469 354.253906 288.539062 353.648438 288.539062 Z M 353.648438 196.472656 L 21.34375 196.472656 C 20.738281 196.472656 20.136719 196.414062 19.542969 196.292969 C 18.949219 196.175781 18.371094 196 17.8125 195.769531 C 17.25 195.535156 16.71875 195.253906 16.214844 194.914062 C 15.710938 194.578125 15.246094 194.195312 14.816406 193.769531 C 14.386719 193.339844 14.003906 192.871094 13.667969 192.367188 C 13.332031 191.863281 13.046875 191.332031 12.816406 190.773438 C 12.582031 190.214844 12.410156 189.636719 12.289062 189.042969 C 12.171875 188.445312 12.113281 187.847656 12.113281 187.242188 C 12.113281 186.632812 12.171875 186.035156 12.289062 185.441406 C 12.410156 184.84375 12.582031 184.269531 12.816406 183.707031 C 13.046875 183.148438 13.332031 182.617188 13.667969 182.113281 C 14.003906 181.609375 14.386719 181.140625 14.816406 180.714844 C 15.246094 180.285156 15.710938 179.902344 16.214844 179.566406 C 16.71875 179.230469 17.25 178.945312 17.8125 178.710938 C 18.371094 178.480469 18.949219 178.304688 19.542969 178.1875 C 20.136719 178.070312 20.738281 178.011719 21.34375 178.011719 L 353.648438 178.011719 C 354.253906 178.011719 354.855469 178.070312 355.449219 178.1875 C 356.042969 178.304688 356.621094 178.480469 357.179688 178.710938 C 357.738281 178.945312 358.269531 179.230469 358.773438 179.566406 C 359.28125 179.902344 359.746094 180.285156 360.175781 180.714844 C 360.601562 181.140625 360.984375 181.609375 361.320312 182.113281 C 361.660156 182.617188 361.941406 183.148438 362.175781 183.707031 C 362.40625 184.269531 362.582031 184.84375 362.699219 185.441406 C 362.820312 186.035156 362.878906 186.632812 362.878906 187.242188 C 362.878906 187.847656 362.820312 188.445312 362.699219 189.042969 C 362.582031 189.636719 362.40625 190.214844 362.175781 190.773438 C 361.941406 191.332031 361.660156 191.863281 361.320312 192.367188 C 360.984375 192.871094 360.601562 193.339844 360.175781 193.769531 C 359.746094 194.195312 359.28125 194.578125 358.773438 194.914062 C 358.269531 195.253906 357.738281 195.535156 357.179688 195.769531 C 356.621094 196 356.042969 196.175781 355.449219 196.292969 C 354.855469 196.414062 354.253906 196.472656 353.648438 196.472656 Z M 353.648438 104.421875 L 21.34375 104.421875 C 20.738281 104.421875 20.136719 104.363281 19.542969 104.246094 C 18.949219 104.128906 18.371094 103.953125 17.8125 103.722656 C 17.25 103.488281 16.71875 103.203125 16.214844 102.867188 C 15.710938 102.53125 15.246094 102.148438 14.816406 101.71875 C 14.386719 101.292969 14.003906 100.824219 13.667969 100.320312 C 13.332031 99.816406 13.046875 99.285156 12.816406 98.726562 C 12.582031 98.164062 12.410156 97.589844 12.289062 96.992188 C 12.171875 96.398438 12.113281 95.800781 12.113281 95.191406 C 12.113281 94.585938 12.171875 93.988281 12.289062 93.390625 C 12.410156 92.796875 12.582031 92.21875 12.816406 91.660156 C 13.046875 91.101562 13.332031 90.570312 13.667969 90.066406 C 14.003906 89.5625 14.386719 89.09375 14.816406 88.664062 C 15.246094 88.238281 15.710938 87.855469 16.214844 87.519531 C 16.71875 87.179688 17.25 86.898438 17.8125 86.664062 C 18.371094 86.433594 18.949219 86.257812 19.542969 86.140625 C 20.136719 86.019531 20.738281 85.960938 21.34375 85.960938 L 353.648438 85.960938 C 354.253906 85.960938 354.855469 86.019531 355.449219 86.140625 C 356.042969 86.257812 356.621094 86.433594 357.179688 86.664062 C 357.738281 86.898438 358.269531 87.179688 358.773438 87.519531 C 359.28125 87.855469 359.746094 88.238281 360.175781 88.664062 C 360.601562 89.09375 360.984375 89.5625 361.320312 90.066406 C 361.660156 90.570312 361.941406 91.101562 362.175781 91.660156 C 362.40625 92.21875 362.582031 92.796875 362.699219 93.390625 C 362.820312 93.988281 362.878906 94.585938 362.878906 95.191406 C 362.878906 95.800781 362.820312 96.398438 362.699219 96.992188 C 362.582031 97.589844 362.40625 98.164062 362.175781 98.726562 C 361.941406 99.285156 361.660156 99.816406 361.320312 100.320312 C 360.984375 100.824219 360.601562 101.292969 360.175781 101.71875 C 359.746094 102.148438 359.28125 102.53125 358.773438 102.867188 C 358.269531 103.203125 357.738281 103.488281 357.179688 103.722656 C 356.621094 103.953125 356.042969 104.128906 355.449219 104.246094 C 354.855469 104.363281 354.253906 104.421875 353.648438 104.421875 Z M 353.648438 104.421875 " fill-opacity="1" fill-rule="nonzero"/></g></svg>