<svg xmlns="http://www.w3.org/2000/svg" xmlns:xlink="http://www.w3.org/1999/xlink" width="500" zoomAndPan="magnify" viewBox="0 0 375 374.999991" height="500" preserveAspectRatio="xMidYMid meet" version="1.0"><defs><clipPath id="903aaa59d2"><path d="M 28.597656 28.597656 L 346.597656 28.597656 L 346.597656 346.597656 L 28.597656 346.597656 Z M 28.597656 28.597656 " clip-rule="nonzero"/></clipPath></defs><g clip-path="url(#903aaa59d2)"><path fill="#ffffff" d="M 328.828125 169.925781 L 205.066406 169.925781 L 205.066406 46.167969 C 205.066406 36.445312 197.21875 28.597656 187.496094 28.597656 C 177.773438 28.597656 169.925781 36.445312 169.925781 46.167969 L 169.925781 169.925781 L 46.167969 169.925781 C 36.445312 169.925781 28.597656 177.773438 28.597656 187.496094 C 28.597656 197.21875 36.445312 205.066406 46.167969 205.066406 L 169.925781 205.066406 L 169.925781 328.828125 C 169.925781 338.550781 177.773438 346.398438 187.496094 346.398438 C 197.21875 346.398438 205.066406 338.550781 205.066406 328.828125 L 205.066406 205.066406 L 328.828125 205.066406 C 338.550781 205.066406 346.398438 197.21875 346.398438 187.496094 C 346.398438 177.773438 338.550781 169.925781 328.828125 169.925781 Z M 328.828125 169.925781 " fill-opacity="1" fill-rule="nonzero"/></g></svg>