<svg xmlns="http://www.w3.org/2000/svg" xmlns:xlink="http://www.w3.org/1999/xlink" width="500" zoomAndPan="magnify" viewBox="0 0 375 374.999991" height="500" preserveAspectRatio="xMidYMid meet" version="1.0"><defs><clipPath id="039651fed0"><path d="M 18.8125 18 L 356.3125 18 L 356.3125 356.890625 L 18.8125 356.890625 Z M 18.8125 18 " clip-rule="nonzero"/></clipPath></defs><rect x="-37.5" width="450" fill="#ffffff" y="-37.499999" height="449.999989" fill-opacity="1"/><rect x="-37.5" width="450" fill="#ffffff" y="-37.499999" height="449.999989" fill-opacity="1"/><g clip-path="url(#039651fed0)"><path fill="#000000" d="M 307.105469 67.28125 C 275.382812 35.558594 233.199219 18.054688 188.25 18.054688 C 95.636719 18.054688 20.253906 93.34375 20.222656 185.898438 C 20.222656 215.476562 27.953125 244.371094 42.65625 269.8125 L 18.8125 356.789062 L 107.890625 333.441406 C 132.4375 346.824219 160.066406 353.859375 188.183594 353.875 L 188.25 353.875 C 280.851562 353.875 356.246094 278.570312 356.261719 186.03125 C 356.261719 141.175781 338.828125 99.019531 307.089844 67.28125 Z M 188.25 325.535156 L 188.199219 325.535156 C 163.152344 325.535156 138.558594 318.804688 117.113281 306.089844 L 112.015625 303.058594 L 59.152344 316.910156 L 73.253906 265.421875 L 69.933594 260.148438 C 55.949219 237.9375 48.574219 212.261719 48.589844 185.898438 C 48.625 108.984375 111.277344 46.394531 188.300781 46.394531 C 225.605469 46.394531 260.664062 60.933594 287.035156 87.3125 C 313.410156 113.675781 327.914062 148.730469 327.894531 186.015625 C 327.863281 262.945312 265.207031 325.535156 188.234375 325.535156 Z M 264.855469 221.054688 C 260.664062 218.960938 240.023438 208.8125 236.167969 207.421875 C 232.3125 206.015625 229.527344 205.328125 226.730469 209.515625 C 223.929688 213.71875 215.882812 223.164062 213.433594 225.960938 C 210.984375 228.757812 208.539062 229.109375 204.328125 227 C 200.136719 224.90625 186.609375 220.46875 170.5625 206.179688 C 158.089844 195.058594 149.65625 181.324219 147.207031 177.121094 C 144.761719 172.917969 146.957031 170.65625 149.050781 168.5625 C 150.929688 166.6875 153.242188 163.65625 155.355469 161.210938 C 157.453125 158.765625 158.15625 157.003906 159.546875 154.207031 C 160.957031 151.410156 160.253906 148.964844 159.195312 146.855469 C 158.140625 144.761719 149.757812 124.109375 146.253906 115.71875 C 142.847656 107.546875 139.378906 108.652344 136.8125 108.515625 C 134.367188 108.398438 131.566406 108.367188 128.765625 108.367188 C 125.964844 108.367188 121.421875 109.40625 117.566406 113.609375 C 113.710938 117.8125 102.878906 127.960938 102.878906 148.597656 C 102.878906 169.234375 117.917969 189.179688 120.03125 191.996094 C 122.125 194.792969 149.640625 237.152344 191.753906 255.324219 C 201.765625 259.644531 209.59375 262.222656 215.695312 264.167969 C 225.757812 267.367188 234.910156 266.914062 242.136719 265.824219 C 250.203125 264.621094 266.96875 255.675781 270.472656 245.875 C 273.976562 236.078125 273.976562 227.6875 272.917969 225.929688 C 271.863281 224.171875 269.0625 223.132812 264.871094 221.019531 Z M 264.855469 221.054688 " fill-opacity="1" fill-rule="evenodd"/></g></svg>