<svg xmlns="http://www.w3.org/2000/svg" xmlns:xlink="http://www.w3.org/1999/xlink" width="500" zoomAndPan="magnify" viewBox="0 0 375 374.999991" height="500" preserveAspectRatio="xMidYMid meet" version="1.0"><defs><clipPath id="18a9fbdd13"><path d="M 18.8125 18 L 356.3125 18 L 356.3125 356.890625 L 18.8125 356.890625 Z M 18.8125 18 " clip-rule="nonzero"/></clipPath></defs><g clip-path="url(#18a9fbdd13)"><path fill="#ffffff" d="M 306.996094 67.3125 C 275.285156 35.566406 233.117188 18.054688 188.1875 18.054688 C 95.605469 18.054688 20.253906 93.390625 20.222656 186.003906 C 20.222656 215.601562 27.949219 244.511719 42.644531 269.96875 L 18.8125 357 L 107.859375 333.636719 C 132.394531 347.027344 160.011719 354.066406 188.121094 354.085938 L 188.1875 354.085938 C 280.75 354.085938 356.117188 278.734375 356.132812 186.136719 C 356.132812 141.253906 338.703125 99.070312 306.980469 67.3125 Z M 188.1875 325.726562 L 188.136719 325.726562 C 163.097656 325.726562 138.511719 318.988281 117.074219 306.269531 L 111.980469 303.234375 L 59.136719 317.097656 L 73.230469 265.578125 L 69.914062 260.296875 C 55.9375 238.074219 48.5625 212.382812 48.578125 186.003906 C 48.613281 109.042969 111.242188 46.410156 188.238281 46.410156 C 225.527344 46.410156 260.570312 60.960938 286.933594 87.355469 C 313.296875 113.734375 327.792969 148.8125 327.777344 186.121094 C 327.742188 263.097656 265.113281 325.726562 188.167969 325.726562 Z M 264.761719 221.179688 C 260.570312 219.085938 239.941406 208.929688 236.085938 207.539062 C 232.230469 206.132812 229.449219 205.445312 226.648438 209.632812 C 223.851562 213.839844 215.804688 223.292969 213.359375 226.089844 C 210.914062 228.890625 208.464844 229.242188 204.257812 227.128906 C 200.070312 225.035156 186.542969 220.59375 170.503906 206.296875 C 158.035156 195.171875 149.605469 181.425781 147.160156 177.21875 C 144.710938 173.015625 146.90625 170.75 149.003906 168.65625 C 150.878906 166.777344 153.191406 163.746094 155.304688 161.300781 C 157.398438 158.851562 158.101562 157.09375 159.492188 154.292969 C 160.902344 151.496094 160.199219 149.046875 159.140625 146.9375 C 158.085938 144.839844 149.707031 124.175781 146.203125 115.78125 C 142.800781 107.601562 139.332031 108.707031 136.769531 108.574219 C 134.320312 108.457031 131.523438 108.421875 128.722656 108.421875 C 125.925781 108.421875 121.382812 109.460938 117.527344 113.667969 C 113.671875 117.875 102.847656 128.03125 102.847656 148.679688 C 102.847656 169.328125 117.878906 189.289062 119.992188 192.101562 C 122.085938 194.902344 149.589844 237.285156 191.6875 255.472656 C 201.695312 259.796875 209.523438 262.375 215.621094 264.320312 C 225.679688 267.519531 234.828125 267.070312 242.050781 265.980469 C 250.113281 264.773438 266.871094 255.824219 270.375 246.019531 C 273.878906 236.214844 273.878906 227.816406 272.824219 226.058594 C 271.765625 224.296875 268.96875 223.257812 264.777344 221.148438 Z M 264.761719 221.179688 " fill-opacity="1" fill-rule="evenodd"/></g></svg>